<svg xmlns="http://www.w3.org/2000/svg" width="20.884" height="20.884" viewBox="0 0 20.884 20.884">
  <g id="shuttle" transform="translate(0 0)">
    <path id="Path_34780" data-name="Path 34780" d="M5.312,138.268l-1.809.14a1.614,1.614,0,0,0-1.23.724L.186,142.288a1.118,1.118,0,0,0,.762,1.722l1.657.257A14.834,14.834,0,0,1,5.312,138.268Z" transform="translate(0 -132.628)" fill="#fff"/>
    <path id="Path_34781" data-name="Path 34781" d="M226.682,384.472l.257,1.657a1.117,1.117,0,0,0,1.722.762l3.156-2.087a1.614,1.614,0,0,0,.724-1.23l.14-1.809A14.833,14.833,0,0,1,226.682,384.472Z" transform="translate(-217.436 -366.193)" fill="#fff"/>
    <path id="Path_34782" data-name="Path 34782" d="M96.874,242.975a1.05,1.05,0,0,0,.173-.014,11.986,11.986,0,0,0,2.484-.7l-6.809-6.809a11.984,11.984,0,0,0-.7,2.484,1.067,1.067,0,0,0,.3.929l3.8,3.8A1.071,1.071,0,0,0,96.874,242.975Z" transform="translate(-88.252 -225.845)" fill="#fff"/>
    <path id="Path_34783" data-name="Path 34783" d="M137.118,9.259a16.5,16.5,0,0,0,1.641-8.222A1.072,1.072,0,0,0,137.746.024c-.26-.014-.568-.024-.915-.024a16.164,16.164,0,0,0-7.306,1.665,16.62,16.62,0,0,0-6.611,6.757.615.615,0,0,1,.057.05l7.342,7.342a.616.616,0,0,1,.05.057A16.621,16.621,0,0,0,137.118,9.259Zm-7.076-4.844a3.059,3.059,0,1,1-.9,2.163,3.062,3.062,0,0,1,.9-2.163Z" transform="translate(-117.9)" fill="#fff"/>
    <path id="Path_34784" data-name="Path 34784" d="M306.269,119.426a1.835,1.835,0,1,0-.538-1.3A1.838,1.838,0,0,0,306.269,119.426Z" transform="translate(-293.261 -111.551)" fill="#fff"/>
    <path id="Path_34785" data-name="Path 34785" d="M.916,346.186a.61.61,0,0,0,.433-.179l2-2a.612.612,0,1,0-.865-.865l-2,2a.612.612,0,0,0,.433,1.044Z" transform="translate(-0.292 -328.976)" fill="#fff"/>
    <path id="Path_34786" data-name="Path 34786" d="M4.888,388.025a.612.612,0,0,0-.865,0l-3.84,3.84a.612.612,0,1,0,.865.865l3.84-3.84a.612.612,0,0,0,0-.865Z" transform="translate(-0.004 -372.026)" fill="#fff"/>
    <path id="Path_34787" data-name="Path 34787" d="M92.243,432.906l-2,2a.612.612,0,1,0,.865.865l2-2a.612.612,0,0,0-.865-.865Z" transform="translate(-86.393 -415.076)" fill="#fff"/>
  </g>
</svg>
