<svg id="telephone-call_1_" data-name="telephone-call (1)" xmlns="http://www.w3.org/2000/svg" width="16.463" height="16.463" viewBox="0 0 16.463 16.463">
  <path id="Path_34777" data-name="Path 34777" d="M18.106,14.559c-.514-.431-3.528-2.339-4.029-2.252-.235.042-.415.242-.9.817a6.871,6.871,0,0,1-.731.792,6.325,6.325,0,0,1-1.4-.517,8.643,8.643,0,0,1-3.989-3.99,6.325,6.325,0,0,1-.517-1.4,6.871,6.871,0,0,1,.792-.731c.574-.482.775-.66.817-.9.088-.5-1.823-3.515-2.252-4.029C5.724,2.143,5.561,2,5.351,2,4.745,2,2,5.394,2,5.834c0,.036.059,3.569,4.521,8.109,4.54,4.462,8.073,4.521,8.109,4.521.44,0,3.834-2.745,3.834-3.351,0-.209-.143-.373-.357-.553Z" transform="translate(-2 -2)" fill="#fff"/>
  <path id="Path_34778" data-name="Path 34778" d="M20.528,11.7H21.7A4.709,4.709,0,0,0,17,7V8.176A3.531,3.531,0,0,1,20.528,11.7Z" transform="translate(-8.181 -4.06)" fill="#fff"/>
  <path id="Path_34779" data-name="Path 34779" d="M23.468,9.643h1.176A7.652,7.652,0,0,0,17,2V3.176A6.475,6.475,0,0,1,23.468,9.643Z" transform="translate(-8.181 -2)" fill="#fff"/>
</svg>
